<svg width="23" height="12" viewBox="0 0 23 12" fill="none" xmlns="http://www.w3.org/2000/svg">
<path d="M2.06131 1.456L0.781313 1.232V0.112H9.77331L9.94931 3.104H8.50931L7.86931 1.36L4.79731 1.168V5.6L6.89331 5.552L7.21331 4.112H8.33331V8.384H7.22931L6.89331 6.896L4.79731 6.832V10.768L7.24531 10.944V12H0.861313V10.944L2.06131 10.768V1.456ZM19.5657 12C19.4164 12 19.2297 11.808 19.0057 11.424C18.7817 11.0293 18.4457 10.3893 17.9977 9.504C17.3044 8.05333 16.771 7.07733 16.3977 6.576L15.1017 8.064V10.784L16.4297 10.944V12H11.1497V10.944L12.3817 10.768V1.456L11.1497 1.232V0.112H16.2857V1.232L15.1017 1.456V6.432L19.0057 1.456L17.7097 1.232V0.112H22.2697V1.216L20.8617 1.44L17.9817 4.704C18.3657 5.04533 18.7604 5.536 19.1657 6.176C19.5817 6.80533 20.083 7.63733 20.6697 8.672C21.0644 9.36533 21.3577 9.872 21.5497 10.192C21.7524 10.512 21.9124 10.704 22.0297 10.768L22.7977 10.944V12H19.5657Z" fill="#110E47"/>
</svg>
